PathFileType	3	(X/Y/Z)	F:\ViconData\AntennenMessung\Messung1\Session1\ID21.trc
DataRate	CameraRate	NumFrames	NumMarkers	Units	OrigDataRate	OrigDataStartFrame	OrigNumFrames
120.0	120.0	6	70	mm	120.0	141	1126	
Frame#	Time	Ashort			Along			Atop			A4			Bshort			Blong			Btop			B4			Cshort			Clong			Ctop			C4			Dshort			Dlong			Dtop			D4			Eshort			Elong			Etop			E4			Fshort			Flong			Ftop			F4			Gshort			Glong			Gtop			G4			Hshort			Hlong			Htop			H4			I1			I2			I3			I4			I5			WandAshort			WandAlong			WandAtop			WandA4			WandA15			WandBshort			WandB4			WandB5			WandBtop			WandBlong			WandCshort			WandClong			WandCtop			WandC4			WandC5			Acenter			Aantenna			Bcenter			Bantenna			Ccenter			Cantenna			Dcenter			Dantenna			Ecenter			Eantenna			Fcenter			Fantenna			Gcenter			Gantenna			Hcenter			Hantenna			Icenter			Iantenna			
		X1	Y1	Z1	X2	Y2	Z2	X3	Y3	Z3	X4	Y4	Z4	X5	Y5	Z5	X6	Y6	Z6	X7	Y7	Z7	X8	Y8	Z8	X9	Y9	Z9	X10	Y10	Z10	X11	Y11	Z11	X12	Y12	Z12	X13	Y13	Z13	X14	Y14	Z14	X15	Y15	Z15	X16	Y16	Z16	X17	Y17	Z17	X18	Y18	Z18	X19	Y19	Z19	X20	Y20	Z20	X21	Y21	Z21	X22	Y22	Z22	X23	Y23	Z23	X24	Y24	Z24	X25	Y25	Z25	X26	Y26	Z26	X27	Y27	Z27	X28	Y28	Z28	X29	Y29	Z29	X30	Y30	Z30	X31	Y31	Z31	X32	Y32	Z32	X33	Y33	Z33	X34	Y34	Z34	X35	Y35	Z35	X36	Y36	Z36	X37	Y37	Z37	X38	Y38	Z38	X39	Y39	Z39	X40	Y40	Z40	X41	Y41	Z41	X42	Y42	Z42	X43	Y43	Z43	X44	Y44	Z44	X45	Y45	Z45	X46	Y46	Z46	X47	Y47	Z47	X48	Y48	Z48	X49	Y49	Z49	X50	Y50	Z50	X51	Y51	Z51	X52	Y52	Z52	X53	Y53	Z53	X54	Y54	Z54	X55	Y55	Z55	X56	Y56	Z56	X57	Y57	Z57	X58	Y58	Z58	X59	Y59	Z59	X60	Y60	Z60	X61	Y61	Z61	X62	Y62	Z62	X63	Y63	Z63	X64	Y64	Z64	X65	Y65	Z65	X66	Y66	Z66	X67	Y67	Z67	X68	Y68	Z68	X69	Y69	Z69	X70	Y70	Z70	
141	1.1666667	-1038.2416	214.58434	-1644.203	-1109.3831	204.24721	-1599.3438	-1063.7476	173.09834	-1625.7152	-1054.1665	262.31146	-1634.9467	-1352.9324	234.86241	1003.6179	-1281.3309	227.13725	1052.49	-1322.6483	194.04622	1020.9191	-1284.7633	287.91071	1052.8246	813.97552	187.68571	1209.5828	892.36469	178.54634	1179.1753	844.56274	145.43118	1198.2769	860.79095	292.414	1167.96	1115.7306	209.5856	-1401.5645	1056.155	194.18091	-1460.4413	1094.6582	161.74934	-1423.9294	1069.8474	238.6312	-1425.7666	-1204.5707	1685.9536	-1563.168	-1129.1309	1688.3359	-1606.0443	-1173.2037	1724.467	-1581.9183	-1134.0724	1581.0088	-1603.9027	-1239.7083	1699.287	1119.6088	-1308.4125	1699.3571	1069.3224	-1270.5365	1736.5424	1097.0179	-1244.8906	1593.7742	1106.108	988.90631	1664.302	1162.2369	955.88446	1702.3551	1181.1398	923.03595	1661.9608	1215.1479	939.79169	1659.4636	1159.9257	998.9502	1668.4902	-1579.5338	1058.6912	1669.9714	-1518.7219	1024.9371	1708.0487	-1551.1881	1059.2067	1672.1632	-1585.5144	-209.35245	1637.0134	-265.59973	-216.2738	1638.4528	-181.30301	-213.01552	1674.4218	-228.4142	-244.2114	1635.2549	-231.20328	-163.73711	1640.2555	-224.83235																																														-1068.6855	210.16069	-1625.0061	-1073.8353	248.8121	-1624.2665	-1321.4629	231.46715	1025.0977	-1320.2358	270.20706	1029.4233	848.2514	183.68947	1196.2869	851.98914	222.45755	1194.2705	1088.55	202.55745	-1428.426	1082.811	240.90077	-1432.651	-1171.9125	1686.9847	-1581.7291	-1170.5698	1648.0084	-1581.5323	-1270.574	1699.3182	1097.0173	-1270.6132	1660.3184	1097.0166	953.71277	1704.8575	1182.3829	972.98254	1731.8035	1161.8015	1026.3568	1669.1698	-1551.6357	1027.7799	1630.1984	-1552.0846	-212.46091	1637.6597	-227.74095	-211.87271	1598.6708	-227.02695
142	1.175	-1038.261	214.54396	-1644.1703	-1109.3718	204.32324	-1599.3815	-1063.7854	173.10904	-1625.6781	-1054.1949	262.29077	-1634.933	-1352.925	234.84607	1003.649	-1281.4456	227.15862	1052.5221	-1322.6359	194.06638	1020.8534	-1284.807	287.89844	1052.8574	814.04602	187.5601	1209.5771	892.28479	178.39241	1179.2369	844.33759	145.44321	1198.4091	860.79596	292.44742	1167.8655	1115.7404	209.59193	-1401.5175	1056.1495	194.20491	-1460.4011	1094.7181	161.85419	-1423.9518	1069.8944	238.65573	-1425.7513	-1204.5558	1685.9674	-1563.1707	-1129.1311	1688.3405	-1606.0562	-1173.2026	1724.4629	-1581.9474	-1134.05	1581.0138	-1603.9365	-1239.672	1699.2284	1119.5812	-1309.1085	1698.3666	1071.8113	-1270.4375	1736.3777	1096.9512	-1244.9481	1593.7073	1106.2339	988.91577	1664.2983	1162.2416	955.93286	1702.4457	1181.1022	922.84869	1661.9847	1215.0396	939.78442	1659.4702	1159.8916	998.94983	1668.4756	-1579.5586	1058.6768	1669.9589	-1518.7311	1024.9401	1708.0492	-1551.181	1059.2083	1672.1538	-1585.5183	-209.37697	1637.0133	-265.59338	-216.23334	1638.4178	-181.32646	-213.02879	1674.4185	-228.41426	-244.22786	1635.2454	-231.20477	-163.70154	1640.261	-224.79688																																														-1068.6886	210.17059	-1625.0054	-1073.8029	248.82744	-1624.3038	-1321.528	231.46938	1025.1162	-1320.3807	270.20175	1029.5306	848.02679	183.57835	1196.3997	851.7771	222.34384	1194.3571	1088.5673	202.57555	-1428.3679	1082.7758	240.91829	-1432.5264	-1171.9037	1686.9946	-1581.7361	-1170.5526	1648.0187	-1581.5164	-1270.8051	1698.8418	1098.1626	-1271.1868	1659.864	1099.4208	953.7959	1704.9171	1182.3241	973.19409	1731.8279	1161.8174	1026.3682	1669.1564	-1551.635	1027.7991	1630.1854	-1552.09	-212.4557	1637.6438	-227.75468	-211.84813	1598.6549	-227.05539
143	1.1833333	-1038.2388	214.52693	-1644.1605	-1109.3701	204.2502	-1599.3711	-1063.8063	173.10239	-1625.6724	-1054.1991	262.32492	-1634.9473	-1352.9177	234.83298	1003.5696	-1281.3398	227.13406	1052.4546	-1322.7379	193.98456	1020.9408	-1284.7588	287.8331	1052.8135	813.93823	187.75906	1209.5828	892.7121	179.08813	1178.7063	844.36023	145.52855	1198.3151	860.81927	292.43042	1168.132	1115.7325	209.57715	-1401.5457	1056.0532	194.07307	-1460.3557	1094.641	161.80432	-1423.9331	1069.8331	238.63197	-1425.7405	-1204.5441	1685.9409	-1563.1632	-1129.1326	1688.3312	-1606.0424	-1173.2023	1724.4542	-1581.9375	-1134.063	1581.012	-1603.9308	-1239.6473	1699.1956	1119.5779	-1308.6952	1699.347	1069.6145	-1270.4644	1736.4094	1096.9572	-1244.8667	1593.8069	1106.0696	988.88043	1664.2454	1162.254	955.86053	1702.3907	1181.1255	922.87048	1662.0038	1215.1019	939.76794	1659.4193	1159.9153	998.96082	1668.4855	-1579.5419	1058.6783	1669.9635	-1518.7152	1024.9404	1708.0585	-1551.1962	1059.2029	1672.1992	-1585.6244	-209.23856	1636.9247	-265.42191	-216.282	1638.4604	-181.30389	-213.03644	1674.4165	-228.41084	-244.22179	1635.2488	-231.20956	-163.75275	1640.2566	-224.85545																																														-1068.7135	210.12405	-1624.9713	-1073.8374	248.77908	-1624.2394	-1321.4989	231.45355	1025.0273	-1320.2174	270.2027	1029.2537	847.81073	184.03058	1196.3059	851.28735	222.82253	1194.2819	1088.4762	202.49623	-1428.4049	1082.6687	240.83061	-1432.6177	-1171.8949	1686.9756	-1581.7275	-1170.5353	1648	-1581.5092	-1270.6704	1699.2634	1097.1295	-1270.8868	1660.2645	1097.3103	953.69904	1704.8877	1182.3607	973.04742	1731.8022	1161.8121	1026.3545	1669.1635	-1551.6394	1027.7714	1630.1917	-1552.0836	-212.39832	1637.6135	-227.68549	-211.72238	1598.627	-226.91708
144	1.1916667	-1038.2521	214.55	-1644.1555	-1109.3716	204.18602	-1599.3112	-1063.7686	173.13007	-1625.6877	-1054.176	262.31586	-1634.927	-1352.9434	234.94391	1003.6177	-1281.3181	227.16139	1052.4032	-1322.6796	194.04755	1020.8987	-1284.759	287.88123	1052.7675	813.93054	187.70186	1209.5502	892.80542	179.12357	1178.6564	844.36774	145.54538	1198.2909	860.6568	292.61667	1167.4497	1115.7183	209.55995	-1401.5189	1056.0239	194.10951	-1460.4453	1094.6974	161.86342	-1423.9662	1069.8684	238.66454	-1425.7336	-1204.582	1685.9597	-1563.1776	-1129.0991	1688.3713	-1606.0814	-1173.2148	1724.4614	-1581.9143	-1134.0573	1581.0154	-1603.9098	-1239.6887	1699.256	1119.5905	-1308.4634	1699.4202	1069.1923	-1270.5217	1736.5144	1097.0111	-1245.5482	1592.8726	1110.7633	988.87811	1664.2736	1162.2397	956.04205	1702.3674	1181.1378	923.02716	1661.9753	1215.1517	939.75977	1659.3939	1159.938	998.94061	1668.491	-1579.5463	1058.6702	1669.9486	-1518.7091	1024.9346	1708.0571	-1551.1764	1059.2042	1672.1918	-1585.6183	-209.36453	1637.009	-265.58545	-216.29276	1638.4584	-181.29907	-213.02841	1674.4065	-228.41409	-244.22278	1635.2366	-231.19951	-163.74896	1640.2539	-224.84862																																														-1068.6976	210.11325	-1624.9579	-1073.8494	248.76399	-1624.1952	-1321.4485	231.52179	1025.0695	-1320.176	270.26181	1029.3812	847.77069	184.02144	1196.2955	851.20209	222.81805	1194.2834	1088.5193	202.52017	-1428.3678	1082.6937	240.85858	-1432.5186	-1171.9202	1687.0032	-1581.7422	-1170.5731	1648.0269	-1581.5631	-1270.5723	1699.3296	1096.9587	-1270.6254	1660.3297	1096.9041	953.90118	1704.851	1182.3699	973.26617	1731.7435	1161.8081	1026.347	1669.1598	-1551.6315	1027.7625	1630.1881	-1552.0873	-212.47563	1637.6598	-227.73676	-211.88911	1598.6708	-227.01811
145	1.2	-1038.2542	214.57782	-1644.1841	-1109.3484	204.29478	-1599.3883	-1063.7561	173.10794	-1625.7168	-1054.2222	262.37863	-1634.9979	-1353.0039	234.76775	1003.636	-1281.3918	227.13631	1052.5605	-1322.761	193.95976	1020.9716	-1284.8066	287.91296	1052.8864	813.94458	187.61589	1209.5002	892.38074	178.45074	1179.204	844.50842	145.40862	1198.2596	860.83032	292.56201	1167.9381	1115.7123	209.57649	-1401.5411	1056.0601	194.13989	-1460.4546	1094.6742	161.92284	-1423.9832	1069.8717	238.69313	-1425.7439	-1204.5667	1685.9637	-1563.1802	-1129.1205	1688.339	-1606.0322	-1173.2003	1724.4667	-1581.9269	-1134.0636	1581.0077	-1603.9056	-1239.6464	1699.187	1119.5719	-1308.161	1699.3391	1068.0192	-1270.4633	1736.3909	1096.9591	-1244.7537	1593.6604	1106.5442	988.84998	1664.2224	1162.2008	955.95087	1702.3818	1181.163	922.94592	1661.9609	1215.1644	939.79395	1659.4419	1159.8949	998.94739	1668.4832	-1579.5331	1058.8008	1670.1495	-1518.705	1024.9336	1708.0475	-1551.1868	1059.2128	1672.1569	-1585.51	-209.37428	1637.0056	-265.59225	-216.24391	1638.4144	-181.33636	-213.04248	1674.4144	-228.4194	-244.19981	1635.2267	-231.20895	-163.76643	1640.2574	-224.85129																																														-1068.6761	210.1776	-1625.0155	-1073.8063	248.83177	-1624.2844	-1321.5885	231.41992	1025.0985	-1320.3759	270.1666	1029.3674	848.20312	183.61282	1196.2677	851.95227	222.37953	1194.2466	1088.5211	202.54005	-1428.3954	1082.7131	240.87959	-1432.5603	-1171.9083	1686.9918	-1581.7294	-1170.5648	1648.0155	-1581.5242	-1270.2396	1699.2549	1096.5524	-1270.0049	1660.2579	1096.1254	953.81506	1704.859	1182.3938	973.17474	1731.7627	1161.8417	1026.4332	1669.2483	-1551.5995	1027.9396	1630.2797	-1552.0142	-212.45909	1637.6381	-227.75691	-211.84062	1598.6494	-227.05457
146	1.2083333	-1038.2561	214.57994	-1644.1849	-1109.3794	204.29263	-1599.3682	-1063.7455	173.16312	-1625.7157	-1054.1749	262.41101	-1635.0327	-1352.8981	234.82463	1003.5662	-1281.3639	227.16855	1052.4518	-1322.7372	193.99248	1020.9531	-1284.7395	287.93002	1052.7715	813.91254	187.70039	1209.6581	892.263	178.54298	1179.0807	844.49292	145.39815	1198.3425	860.68799	292.52505	1167.748	1115.7327	209.56631	-1401.5426	1056.1373	194.12514	-1460.3997	1094.6986	161.90111	-1423.9698	1069.8572	238.6954	-1425.7655	-1204.5253	1685.9504	-1563.1863	-1129.1273	1688.342	-1606.0436	-1173.252	1724.3583	-1581.8214	-1134.0356	1581.0138	-1603.9299	-1239.6637	1699.2148	1119.5787	-1309.1265	1698.4259	1071.8381	-1269.0248	1737.3683	1094.3508	-1244.7374	1593.7058	1106.5647	988.89166	1664.2841	1162.2563	955.84503	1702.3341	1181.0834	922.80316	1661.9733	1215.0696	939.8136	1659.4127	1159.9313	998.94501	1668.4932	-1579.5311	1058.8224	1670.1549	-1518.7054	1024.9342	1708.0586	-1551.197	1059.2129	1672.1533	-1585.5145	-209.37892	1637.0135	-265.58859	-216.23471	1638.4087	-181.34467	-213.04309	1674.4219	-228.41209	-244.20322	1635.2427	-231.20454	-163.74092	1640.2517	-224.81117																																														-1068.6639	210.18172	-1625.0239	-1073.7997	248.83534	-1624.3016	-1321.5055	231.46477	1025.0193	-1320.2318	270.21646	1029.2245	848.16785	183.6967	1196.2894	851.8877	222.46324	1194.2112	1088.5437	202.52162	-1428.3947	1082.7347	240.85979	-1432.5708	-1171.9868	1686.9825	-1581.6815	-1170.6674	1648.0051	-1581.5354	-1271.0844	1698.8579	1097.9839	-1273.1578	1660.0852	1101.6417	953.60663	1704.9114	1182.3585	972.9364	1731.8558	1161.8318	1026.4307	1669.2559	-1551.6101	1027.9336	1630.2871	-1552.0249	-212.45781	1637.64	-227.75531	-211.8374	1598.6511	-227.05914
